<mxfile host="app.diagrams.net" agent="Mozilla/5.0 (Windows NT 10.0; Win64; x64) AppleWebKit/537.36 (KHTML, like Gecko) Chrome/134.0.0.0 YaBrowser/25.4.0.0 Safari/537.36" version="27.1.4">
  <diagram id="CBeHgDCRPvaqWZCi-Q7E" name="Страница — 1">
    <mxGraphModel dx="3080" dy="788" grid="1" gridSize="10" guides="1" tooltips="1" connect="1" arrows="1" fold="1" page="1" pageScale="1" pageWidth="1654" pageHeight="1169" math="0" shadow="0">
      <root>
        <mxCell id="0" />
        <mxCell id="1" parent="0" />
        <mxCell id="uPNVgdM4NZMy6NxIwCiw-46" style="edgeStyle=orthogonalEdgeStyle;rounded=0;orthogonalLoop=1;jettySize=auto;html=1;exitX=1;exitY=0.5;exitDx=0;exitDy=0;exitPerimeter=0;entryX=0;entryY=0.5;entryDx=0;entryDy=0;" edge="1" parent="1" source="uPNVgdM4NZMy6NxIwCiw-21">
          <mxGeometry relative="1" as="geometry">
            <mxPoint x="140" y="310" as="targetPoint" />
          </mxGeometry>
        </mxCell>
        <mxCell id="uPNVgdM4NZMy6NxIwCiw-21" value="" style="points=[[0.145,0.145,0],[0.5,0,0],[0.855,0.145,0],[1,0.5,0],[0.855,0.855,0],[0.5,1,0],[0.145,0.855,0],[0,0.5,0]];shape=mxgraph.bpmn.event;html=1;verticalLabelPosition=bottom;labelBackgroundColor=#ffffff;verticalAlign=top;align=center;perimeter=ellipsePerimeter;outlineConnect=0;outline=standard;symbol=message;flipV=0;aspect=fixed;" vertex="1" parent="1">
          <mxGeometry x="40" y="285" width="50" height="50" as="geometry" />
        </mxCell>
        <mxCell id="uPNVgdM4NZMy6NxIwCiw-22" value="&lt;span style=&quot;text-wrap-mode: wrap;&quot;&gt;Поступило письмо на электронную почту&lt;/span&gt;" style="text;html=1;align=center;verticalAlign=middle;resizable=0;points=[];autosize=1;strokeColor=none;fillColor=none;" vertex="1" parent="1">
          <mxGeometry x="-60" y="360" width="250" height="30" as="geometry" />
        </mxCell>
        <mxCell id="uPNVgdM4NZMy6NxIwCiw-53" value="" style="edgeStyle=orthogonalEdgeStyle;rounded=0;orthogonalLoop=1;jettySize=auto;html=1;" edge="1" parent="1" source="uPNVgdM4NZMy6NxIwCiw-24" target="uPNVgdM4NZMy6NxIwCiw-33">
          <mxGeometry relative="1" as="geometry" />
        </mxCell>
        <mxCell id="uPNVgdM4NZMy6NxIwCiw-24" value="Проверить письмо на дубликаты&lt;div&gt;(GET-запрос)&lt;/div&gt;" style="rounded=1;whiteSpace=wrap;html=1;" vertex="1" parent="1">
          <mxGeometry x="511" y="190" width="120" height="60" as="geometry" />
        </mxCell>
        <mxCell id="uPNVgdM4NZMy6NxIwCiw-47" style="edgeStyle=orthogonalEdgeStyle;rounded=0;orthogonalLoop=1;jettySize=auto;html=1;exitX=1;exitY=0.5;exitDx=0;exitDy=0;entryX=0;entryY=0.5;entryDx=0;entryDy=0;" edge="1" parent="1">
          <mxGeometry relative="1" as="geometry">
            <mxPoint x="260" y="310" as="sourcePoint" />
            <mxPoint x="300" y="310" as="targetPoint" />
          </mxGeometry>
        </mxCell>
        <mxCell id="uPNVgdM4NZMy6NxIwCiw-48" value="" style="edgeStyle=orthogonalEdgeStyle;rounded=0;orthogonalLoop=1;jettySize=auto;html=1;" edge="1" parent="1" target="uPNVgdM4NZMy6NxIwCiw-29">
          <mxGeometry relative="1" as="geometry">
            <mxPoint x="420" y="310" as="sourcePoint" />
          </mxGeometry>
        </mxCell>
        <mxCell id="uPNVgdM4NZMy6NxIwCiw-25" value="&lt;span style=&quot;font-size: 11px; background-color: rgb(255, 255, 255);&quot;&gt;Дубликат&amp;nbsp;&lt;/span&gt;&lt;div&gt;&lt;span style=&quot;font-size: 11px; background-color: rgb(255, 255, 255);&quot;&gt;найден?&lt;/span&gt;&lt;/div&gt;" style="text;html=1;align=center;verticalAlign=middle;resizable=0;points=[];autosize=1;strokeColor=none;fillColor=none;" vertex="1" parent="1">
          <mxGeometry x="635" y="230" width="70" height="40" as="geometry" />
        </mxCell>
        <mxCell id="uPNVgdM4NZMy6NxIwCiw-51" style="edgeStyle=orthogonalEdgeStyle;rounded=0;orthogonalLoop=1;jettySize=auto;html=1;exitX=0.5;exitY=0;exitDx=0;exitDy=0;exitPerimeter=0;entryX=0;entryY=0.5;entryDx=0;entryDy=0;" edge="1" parent="1" source="uPNVgdM4NZMy6NxIwCiw-29" target="uPNVgdM4NZMy6NxIwCiw-24">
          <mxGeometry relative="1" as="geometry" />
        </mxCell>
        <mxCell id="uPNVgdM4NZMy6NxIwCiw-52" style="edgeStyle=orthogonalEdgeStyle;rounded=0;orthogonalLoop=1;jettySize=auto;html=1;exitX=0.5;exitY=1;exitDx=0;exitDy=0;exitPerimeter=0;entryX=0;entryY=0.5;entryDx=0;entryDy=0;" edge="1" parent="1" source="uPNVgdM4NZMy6NxIwCiw-29" target="uPNVgdM4NZMy6NxIwCiw-32">
          <mxGeometry relative="1" as="geometry" />
        </mxCell>
        <mxCell id="uPNVgdM4NZMy6NxIwCiw-29" value="" style="points=[[0.25,0.25,0],[0.5,0,0],[0.75,0.25,0],[1,0.5,0],[0.75,0.75,0],[0.5,1,0],[0.25,0.75,0],[0,0.5,0]];shape=mxgraph.bpmn.gateway2;html=1;verticalLabelPosition=bottom;labelBackgroundColor=#ffffff;verticalAlign=top;align=center;perimeter=rhombusPerimeter;outlineConnect=0;outline=none;symbol=none;gwType=parallel;" vertex="1" parent="1">
          <mxGeometry x="460" y="285" width="50" height="50" as="geometry" />
        </mxCell>
        <mxCell id="uPNVgdM4NZMy6NxIwCiw-32" value="Классифицировать письмо по типу" style="rounded=1;whiteSpace=wrap;html=1;" vertex="1" parent="1">
          <mxGeometry x="511" y="360" width="120" height="60" as="geometry" />
        </mxCell>
        <mxCell id="uPNVgdM4NZMy6NxIwCiw-58" value="" style="edgeStyle=orthogonalEdgeStyle;rounded=0;orthogonalLoop=1;jettySize=auto;html=1;" edge="1" parent="1" source="uPNVgdM4NZMy6NxIwCiw-33" target="uPNVgdM4NZMy6NxIwCiw-57">
          <mxGeometry relative="1" as="geometry" />
        </mxCell>
        <mxCell id="uPNVgdM4NZMy6NxIwCiw-62" style="edgeStyle=orthogonalEdgeStyle;rounded=0;orthogonalLoop=1;jettySize=auto;html=1;exitX=0.5;exitY=1;exitDx=0;exitDy=0;exitPerimeter=0;entryX=0;entryY=0.25;entryDx=0;entryDy=0;" edge="1" parent="1" source="uPNVgdM4NZMy6NxIwCiw-33" target="uPNVgdM4NZMy6NxIwCiw-39">
          <mxGeometry relative="1" as="geometry" />
        </mxCell>
        <mxCell id="uPNVgdM4NZMy6NxIwCiw-33" value="" style="points=[[0.25,0.25,0],[0.5,0,0],[0.75,0.25,0],[1,0.5,0],[0.75,0.75,0],[0.5,1,0],[0.25,0.75,0],[0,0.5,0]];shape=mxgraph.bpmn.gateway2;html=1;verticalLabelPosition=bottom;labelBackgroundColor=#ffffff;verticalAlign=top;align=center;perimeter=rhombusPerimeter;outlineConnect=0;outline=none;symbol=none;gwType=exclusive;" vertex="1" parent="1">
          <mxGeometry x="680" y="195" width="50" height="50" as="geometry" />
        </mxCell>
        <mxCell id="uPNVgdM4NZMy6NxIwCiw-43" style="edgeStyle=orthogonalEdgeStyle;rounded=0;orthogonalLoop=1;jettySize=auto;html=1;exitX=1;exitY=0.5;exitDx=0;exitDy=0;exitPerimeter=0;entryX=0;entryY=0.5;entryDx=0;entryDy=0;" edge="1" parent="1" source="uPNVgdM4NZMy6NxIwCiw-34" target="uPNVgdM4NZMy6NxIwCiw-38">
          <mxGeometry relative="1" as="geometry" />
        </mxCell>
        <mxCell id="uPNVgdM4NZMy6NxIwCiw-61" style="edgeStyle=orthogonalEdgeStyle;rounded=0;orthogonalLoop=1;jettySize=auto;html=1;exitX=0.5;exitY=0;exitDx=0;exitDy=0;exitPerimeter=0;entryX=0;entryY=0.75;entryDx=0;entryDy=0;" edge="1" parent="1" source="uPNVgdM4NZMy6NxIwCiw-34" target="uPNVgdM4NZMy6NxIwCiw-39">
          <mxGeometry relative="1" as="geometry" />
        </mxCell>
        <mxCell id="uPNVgdM4NZMy6NxIwCiw-34" value="" style="points=[[0.25,0.25,0],[0.5,0,0],[0.75,0.25,0],[1,0.5,0],[0.75,0.75,0],[0.5,1,0],[0.25,0.75,0],[0,0.5,0]];shape=mxgraph.bpmn.gateway2;html=1;verticalLabelPosition=bottom;labelBackgroundColor=#ffffff;verticalAlign=top;align=center;perimeter=rhombusPerimeter;outlineConnect=0;outline=none;symbol=none;gwType=exclusive;" vertex="1" parent="1">
          <mxGeometry x="680" y="365" width="50" height="50" as="geometry" />
        </mxCell>
        <mxCell id="uPNVgdM4NZMy6NxIwCiw-38" value="Удалить письмо" style="rounded=1;whiteSpace=wrap;html=1;" vertex="1" parent="1">
          <mxGeometry x="800" y="360" width="120" height="60" as="geometry" />
        </mxCell>
        <mxCell id="uPNVgdM4NZMy6NxIwCiw-65" style="edgeStyle=orthogonalEdgeStyle;rounded=0;orthogonalLoop=1;jettySize=auto;html=1;exitX=1;exitY=0.5;exitDx=0;exitDy=0;entryX=0;entryY=0.5;entryDx=0;entryDy=0;" edge="1" parent="1" source="uPNVgdM4NZMy6NxIwCiw-39" target="uPNVgdM4NZMy6NxIwCiw-40">
          <mxGeometry relative="1" as="geometry" />
        </mxCell>
        <mxCell id="uPNVgdM4NZMy6NxIwCiw-39" value="&lt;span style=&quot;text-wrap-mode: nowrap;&quot;&gt;Сформировать JSON&lt;/span&gt;&lt;div&gt;&lt;span style=&quot;text-wrap-mode: nowrap;&quot;&gt;(POST-запрос) и&amp;nbsp;&lt;/span&gt;&lt;/div&gt;&lt;div&gt;&lt;span style=&quot;text-wrap-mode: nowrap;&quot;&gt;о&lt;/span&gt;&lt;span style=&quot;text-wrap-mode: nowrap; background-color: transparent; color: light-dark(rgb(0, 0, 0), rgb(255, 255, 255));&quot;&gt;тправить в&amp;nbsp;&lt;/span&gt;&lt;/div&gt;&lt;div&gt;&lt;span style=&quot;text-wrap-mode: nowrap; background-color: transparent; color: light-dark(rgb(0, 0, 0), rgb(255, 255, 255));&quot;&gt;Directum RX API&lt;/span&gt;&lt;/div&gt;" style="rounded=1;whiteSpace=wrap;html=1;" vertex="1" parent="1">
          <mxGeometry x="730" y="270" width="120" height="60" as="geometry" />
        </mxCell>
        <mxCell id="uPNVgdM4NZMy6NxIwCiw-40" value="Зарегистрировать документ+прикрепить вложение" style="rounded=1;whiteSpace=wrap;html=1;" vertex="1" parent="1">
          <mxGeometry x="880" y="270" width="120" height="60" as="geometry" />
        </mxCell>
        <mxCell id="uPNVgdM4NZMy6NxIwCiw-72" style="edgeStyle=orthogonalEdgeStyle;rounded=0;orthogonalLoop=1;jettySize=auto;html=1;exitX=1;exitY=0.5;exitDx=0;exitDy=0;exitPerimeter=0;" edge="1" parent="1" source="uPNVgdM4NZMy6NxIwCiw-41" target="uPNVgdM4NZMy6NxIwCiw-71">
          <mxGeometry relative="1" as="geometry" />
        </mxCell>
        <mxCell id="uPNVgdM4NZMy6NxIwCiw-41" value="Создать задание исполнителю, уведомить" style="points=[[0.25,0,0],[0.5,0,0],[0.75,0,0],[1,0.25,0],[1,0.5,0],[1,0.75,0],[0.75,1,0],[0.5,1,0],[0.25,1,0],[0,0.75,0],[0,0.5,0],[0,0.25,0]];shape=mxgraph.bpmn.task2;whiteSpace=wrap;rectStyle=rounded;size=10;html=1;container=1;expand=0;collapsible=0;taskMarker=send;" vertex="1" parent="1">
          <mxGeometry x="1030" y="270" width="120" height="60" as="geometry" />
        </mxCell>
        <mxCell id="uPNVgdM4NZMy6NxIwCiw-42" value="Тип?" style="text;html=1;align=center;verticalAlign=middle;resizable=0;points=[];autosize=1;strokeColor=none;fillColor=none;" vertex="1" parent="1">
          <mxGeometry x="655" y="398" width="50" height="30" as="geometry" />
        </mxCell>
        <mxCell id="uPNVgdM4NZMy6NxIwCiw-44" value="спам" style="text;html=1;align=center;verticalAlign=middle;resizable=0;points=[];autosize=1;strokeColor=none;fillColor=none;" vertex="1" parent="1">
          <mxGeometry x="735" y="388" width="50" height="30" as="geometry" />
        </mxCell>
        <mxCell id="uPNVgdM4NZMy6NxIwCiw-57" value="Пропустить обработку" style="rounded=1;whiteSpace=wrap;html=1;" vertex="1" parent="1">
          <mxGeometry x="800" y="190" width="120" height="60" as="geometry" />
        </mxCell>
        <mxCell id="uPNVgdM4NZMy6NxIwCiw-59" style="edgeStyle=orthogonalEdgeStyle;rounded=0;orthogonalLoop=1;jettySize=auto;html=1;exitX=1;exitY=0.5;exitDx=0;exitDy=0;entryX=0;entryY=0.5;entryDx=0;entryDy=0;entryPerimeter=0;" edge="1" parent="1" source="uPNVgdM4NZMy6NxIwCiw-32" target="uPNVgdM4NZMy6NxIwCiw-34">
          <mxGeometry relative="1" as="geometry" />
        </mxCell>
        <mxCell id="uPNVgdM4NZMy6NxIwCiw-60" value="Входящее" style="text;html=1;align=center;verticalAlign=middle;resizable=0;points=[];autosize=1;strokeColor=none;fillColor=none;" vertex="1" parent="1">
          <mxGeometry x="665" y="335" width="80" height="30" as="geometry" />
        </mxCell>
        <mxCell id="uPNVgdM4NZMy6NxIwCiw-63" value="Нет" style="text;html=1;align=center;verticalAlign=middle;resizable=0;points=[];autosize=1;strokeColor=none;fillColor=none;" vertex="1" parent="1">
          <mxGeometry x="690" y="248" width="40" height="30" as="geometry" />
        </mxCell>
        <mxCell id="uPNVgdM4NZMy6NxIwCiw-66" style="edgeStyle=orthogonalEdgeStyle;rounded=0;orthogonalLoop=1;jettySize=auto;html=1;exitX=1;exitY=0.5;exitDx=0;exitDy=0;entryX=0;entryY=0.5;entryDx=0;entryDy=0;entryPerimeter=0;" edge="1" parent="1" source="uPNVgdM4NZMy6NxIwCiw-40" target="uPNVgdM4NZMy6NxIwCiw-41">
          <mxGeometry relative="1" as="geometry" />
        </mxCell>
        <mxCell id="uPNVgdM4NZMy6NxIwCiw-67" value="Да" style="text;html=1;align=center;verticalAlign=middle;resizable=0;points=[];autosize=1;strokeColor=none;fillColor=none;" vertex="1" parent="1">
          <mxGeometry x="740" y="198" width="40" height="30" as="geometry" />
        </mxCell>
        <mxCell id="uPNVgdM4NZMy6NxIwCiw-68" value="Передать письмо на backend-сервер" style="points=[[0.25,0,0],[0.5,0,0],[0.75,0,0],[1,0.25,0],[1,0.5,0],[1,0.75,0],[0.75,1,0],[0.5,1,0],[0.25,1,0],[0,0.75,0],[0,0.5,0],[0,0.25,0]];shape=mxgraph.bpmn.task2;whiteSpace=wrap;rectStyle=rounded;size=10;html=1;container=1;expand=0;collapsible=0;taskMarker=script;" vertex="1" parent="1">
          <mxGeometry x="140" y="280" width="120" height="62" as="geometry" />
        </mxCell>
        <mxCell id="uPNVgdM4NZMy6NxIwCiw-69" value="Распарсить письмо&amp;nbsp;" style="points=[[0.25,0,0],[0.5,0,0],[0.75,0,0],[1,0.25,0],[1,0.5,0],[1,0.75,0],[0.75,1,0],[0.5,1,0],[0.25,1,0],[0,0.75,0],[0,0.5,0],[0,0.25,0]];shape=mxgraph.bpmn.task2;whiteSpace=wrap;rectStyle=rounded;size=10;html=1;container=1;expand=0;collapsible=0;taskMarker=service;" vertex="1" parent="1">
          <mxGeometry x="300" y="280" width="120" height="60" as="geometry" />
        </mxCell>
        <mxCell id="uPNVgdM4NZMy6NxIwCiw-75" style="edgeStyle=orthogonalEdgeStyle;rounded=0;orthogonalLoop=1;jettySize=auto;html=1;exitX=1;exitY=0.5;exitDx=0;exitDy=0;exitPerimeter=0;" edge="1" parent="1" source="uPNVgdM4NZMy6NxIwCiw-71">
          <mxGeometry relative="1" as="geometry">
            <mxPoint x="1340" y="300" as="targetPoint" />
          </mxGeometry>
        </mxCell>
        <mxCell id="uPNVgdM4NZMy6NxIwCiw-71" value="Логировать результат" style="points=[[0.25,0,0],[0.5,0,0],[0.75,0,0],[1,0.25,0],[1,0.5,0],[1,0.75,0],[0.75,1,0],[0.5,1,0],[0.25,1,0],[0,0.75,0],[0,0.5,0],[0,0.25,0]];shape=mxgraph.bpmn.task2;whiteSpace=wrap;rectStyle=rounded;size=10;html=1;container=1;expand=0;collapsible=0;taskMarker=service;" vertex="1" parent="1">
          <mxGeometry x="1190" y="270" width="120" height="60" as="geometry" />
        </mxCell>
        <mxCell id="uPNVgdM4NZMy6NxIwCiw-73" style="edgeStyle=orthogonalEdgeStyle;rounded=0;orthogonalLoop=1;jettySize=auto;html=1;exitX=1;exitY=0.5;exitDx=0;exitDy=0;entryX=0.5;entryY=0;entryDx=0;entryDy=0;entryPerimeter=0;" edge="1" parent="1" source="uPNVgdM4NZMy6NxIwCiw-57" target="uPNVgdM4NZMy6NxIwCiw-71">
          <mxGeometry relative="1" as="geometry" />
        </mxCell>
        <mxCell id="uPNVgdM4NZMy6NxIwCiw-74" style="edgeStyle=orthogonalEdgeStyle;rounded=0;orthogonalLoop=1;jettySize=auto;html=1;exitX=1;exitY=0.5;exitDx=0;exitDy=0;entryX=0.5;entryY=1;entryDx=0;entryDy=0;entryPerimeter=0;" edge="1" parent="1" source="uPNVgdM4NZMy6NxIwCiw-38" target="uPNVgdM4NZMy6NxIwCiw-71">
          <mxGeometry relative="1" as="geometry" />
        </mxCell>
        <mxCell id="uPNVgdM4NZMy6NxIwCiw-76" value="" style="points=[[0.145,0.145,0],[0.5,0,0],[0.855,0.145,0],[1,0.5,0],[0.855,0.855,0],[0.5,1,0],[0.145,0.855,0],[0,0.5,0]];shape=mxgraph.bpmn.event;html=1;verticalLabelPosition=bottom;labelBackgroundColor=#ffffff;verticalAlign=top;align=center;perimeter=ellipsePerimeter;outlineConnect=0;aspect=fixed;outline=end;symbol=terminate2;" vertex="1" parent="1">
          <mxGeometry x="1340" y="275" width="50" height="50" as="geometry" />
        </mxCell>
      </root>
    </mxGraphModel>
  </diagram>
</mxfile>
